<svg xmlns="http://www.w3.org/2000/svg" viewBox="0 0 42.92 42.92"><defs><style>.cls-1{fill:#fff;}</style></defs><title>icon_home</title><g id="Layer_2" data-name="Layer 2"><g id="_B_Greeter_Tab" data-name="[B] Greeter — Tab"><path class="cls-1" d="M1,29.26c0-3.93,0-7.86,0-11.78a1,1,0,0,1,.44-.92L20.93,1.26c.44-.35.62-.34,1.07,0L41.46,16.54a1.09,1.09,0,0,1,.46,1q0,11.76,0,23.52c0,.74-.15.89-.88.89H27.42c-.73,0-.89-.16-.89-.89,0-3.09,0-6.17,0-9.26a5.06,5.06,0,0,0-10.1-.37c-.08,3.17,0,6.35,0,9.52,0,.88-.12,1-1,1H1.91c-.77,0-.91-.14-.91-.91Q1,35.13,1,29.26Zm39.7,11.43v-.53q0-11.09,0-22.18a.89.89,0,0,0-.39-.8Q31.07,9.93,21.84,2.65a.51.51,0,0,0-.76,0Q11.84,9.94,2.58,17.19a.86.86,0,0,0-.38.76q0,11.13,0,22.27v.47h13c0-.2,0-.37,0-.54,0-2.9,0-5.8,0-8.7a6.27,6.27,0,0,1,12.53.36c0,2.8,0,5.6,0,8.39,0,.17,0,.33,0,.5Z"/><path class="cls-1" d="M12,42.92H1.91C.6,42.92,0,42.33,0,41V26.68q0-4.6,0-9.2a2,2,0,0,1,.82-1.71L15.81,4,20.31.47a1.64,1.64,0,0,1,2.31,0l4.12,3.24,15.34,12a2.09,2.09,0,0,1,.84,1.74q0,9.57,0,19.13V41A1.65,1.65,0,0,1,41,42.92H27.42A1.66,1.66,0,0,1,25.53,41v-3c0-2.1,0-4.2,0-6.3a4.07,4.07,0,0,0-6.63-3.21,3.8,3.8,0,0,0-1.47,2.86c-.05,2.2,0,4.44,0,6.61,0,1,0,1.92,0,2.89,0,1.44-.56,2-2,2Zm16.71-3.23h11v-3.2q0-9.26,0-18.51Q30.58,10.81,21.46,3.63,12.31,10.84,3.2,18q0,9.36,0,18.67v3h11q0-1.11,0-2.21c0-2,0-4,0-6a7.06,7.06,0,0,1,2.6-5.29A7.27,7.27,0,0,1,28.73,31.8q0,2.9,0,5.8ZM1.26,17.45l-.26,0h.25Z"/></g></g></svg>